# xmcd
#
# Track frame offsets:
#	150
#	13575
#	32137
#	57612
#	79249
#	97099
#
# Disc length: 1575 seconds
# Revision: 0
# Processed by: cddbd v1.5.2PL0 Copyright (c) Steve Scherf et al.
# Submitted via: dBpowerAMP V12.0
#
DISCID=4b062506
DTITLE=Anna Tickle - Anna Tickle
DYEAR=2011
DGENRE=Country
TTITLE0=Willow Tree
TTITLE1=3am
TTITLE2=Fast Car
TTITLE3=Someone Like you
TTITLE4=Skinny Love
TTITLE5=It Could Be You
EXTD=
EXTT0=
EXTT1=
EXTT2=
EXTT3=
EXTT4=
EXTT5=
PLAYORDER=
